# xmcd
#
# Track frame offsets:
#	150
#	6824
#	34175
#	47582
#	67376
#	112736
#	135380
#	157727
#
# Disc length: 2132 seconds
#
# Revision: 0
# Processed by: cddbd v1.4PL0 Copyright (c) Steve Scherf et al.
# Submitted via: audiograbber 1.81.02
#
DISCID=5c085208
DTITLE=Allman Brothers - 1970-07-03 Disc 1
DYEAR=1900
DGENRE=
TTITLE0=Stage Announcements
TTITLE1=Statesboro Blues
TTITLE2=Trouble No More
TTITLE3=Don't Keep Me Wonderin'
TTITLE4=Dreams
TTITLE5=Every Hungry Woman
TTITLE6=Hoochie Coochie Man
TTITLE7=Stage Announcements
EXTD=
EXTT0=
EXTT1=
EXTT2=
EXTT3=
EXTT4=
EXTT5=
EXTT6=
EXTT7=
PLAYORDER=
